<svg xmlns="http://www.w3.org/2000/svg" width="192.999" height="148.842" viewBox="0 0 192.999 148.842">
  <g id="Payroc-logo-main" data-name="Payroc Logo Main" transform="translate(96.5 74.421)">
    <g id="Payroc-logo-main-2" data-name="Payroc Logo Main" transform="translate(-96.5 -74.421)">
      <g id="Group_4814" data-name="Group 4814" transform="translate(0 59.166)">
        <path d="M6.744,197.069v12.615H0V177.039H6.744V180.9a12.642,12.642,0,0,1,10.434-4.8c7.616,0,12.917,5.033,12.917,12.884s-5.3,12.884-12.917,12.884C12.246,201.867,8.69,199.72,6.744,197.069Zm.4-11.441a14.181,14.181,0,0,0,0,6.71c1.107,3.254,4.8,3.925,8.321,3.925,5.2,0,8.186-2.55,8.186-7.247s-2.952-7.247-8.186-7.247c-3.523-.034-7.213.6-8.321,3.892Z" transform="translate(0 -176.066)" fill="#ea5329"/>
        <path d="M127.818,187.74v8.824a8.857,8.857,0,0,0,1.074,4.563h-6.878a5.938,5.938,0,0,1-.872-2.818h0c-1.812,2.013-5.335,3.724-9.965,3.724-5.133,0-11.776-2.047-11.776-8.253s6.643-8.22,11.776-8.22c4.6,0,8.119,1.711,9.965,3.724v-1.577c0-4.429-2.919-6.341-8.656-6.341a16.725,16.725,0,0,0-8.723,2.013l-2.013-4.429a28.326,28.326,0,0,1,12.078-2.651C122.55,176.266,127.818,180.292,127.818,187.74Zm-6.576,5.7c-1.778-2.818-5.335-3.523-8.421-3.523s-6.878.638-6.878,3.825,4.093,3.858,6.878,3.858,6.643-.738,8.421-3.556Z" transform="translate(-66.05 -176.199)" fill="#ea5329"/>
        <path d="M222.433,178.9l-17.48,32.645h-6.878l5.7-10.166L191.6,178.9h7.079l8.522,16.205,8.254-16.205Z" transform="translate(-127.317 -177.927)" fill="#ea5329"/>
        <path d="M294.9,201.859V177.9h6.744l-.235,5.938a12.853,12.853,0,0,1,10.938-6.442v5.771c-5.2,0-9.26,2.047-10.7,6.274v12.447Z" transform="translate(-195.958 -176.93)" fill="#ea5329"/>
        <path d="M352.7,189.117c0-7.985,5.838-12.917,15.3-12.917s15.3,4.9,15.3,12.917-5.871,12.917-15.3,12.917S352.7,197.069,352.7,189.117Zm24.123-.738c0-5-3.724-6.71-8.824-6.71s-8.79,2.818-8.79,7.817,3.724,7.079,8.79,7.079S376.823,193.311,376.823,188.379Z" transform="translate(-234.366 -176.133)" fill="#ea5329"/>
        <path d="M470.465,201.868c-9.394,0-15.165-5-15.165-12.917S461.071,176,470.465,176c6.811,0,11.34,2.952,13.353,6.61l-6.207,2.449c-1.376-2.651-4.06-3.624-7.079-3.624-5,0-10.3,2.483-10.3,7.515s5.3,7.515,10.3,7.515c3.053,0,5.771-1.007,7.247-3.724l6.173,2.483C481.939,198.915,477.376,201.868,470.465,201.868Z" transform="translate(-302.543 -176)" fill="#ea5329"/>
      </g>
      <path d="M211.351,148.467a74.416,74.416,0,0,1-65.022-34.759c-4.6-7.314-7.918-16.742-9.73-25.2l5.838-.067a69.115,69.115,0,0,0,24.392,39.322,68.41,68.41,0,1,0-14.393-91.695c-4.026,6.006-7.113,10.8-9.059,17.748l-5.67.134a74.416,74.416,0,1,1,73.644,94.513Z" transform="translate(-90.77 0.347)" fill="#ea5329"/>
    </g>
  </g>
</svg>
